<?xml version="1.0" encoding="UTF-8" standalone="no"?>
<!-- Created with matplotlib (http://matplotlib.org/) -->

<svg
   xmlns:dc="http://purl.org/dc/elements/1.1/"
   xmlns:cc="http://creativecommons.org/ns#"
   xmlns:rdf="http://www.w3.org/1999/02/22-rdf-syntax-ns#"
   xmlns:svg="http://www.w3.org/2000/svg"
   xmlns="http://www.w3.org/2000/svg"
   xmlns:sodipodi="http://sodipodi.sourceforge.net/DTD/sodipodi-0.dtd"
   xmlns:inkscape="http://www.inkscape.org/namespaces/inkscape"
   height="280.8pt"
   version="1.1"
   viewBox="0 0 296.058824 280.8"
   width="296.058824pt"
   id="svg973"
   sodipodi:docname="alcove-flat.svg"
   inkscape:version="0.92.4 (5da689c313, 2019-01-14)">
  <metadata
     id="metadata977">
    <rdf:RDF>
      <cc:Work
         rdf:about="">
        <dc:format>image/svg+xml</dc:format>
        <dc:type
           rdf:resource="http://purl.org/dc/dcmitype/StillImage" />
        <dc:title></dc:title>
      </cc:Work>
    </rdf:RDF>
  </metadata>
  <sodipodi:namedview
     pagecolor="#ffffff"
     bordercolor="#666666"
     borderopacity="1"
     objecttolerance="10"
     gridtolerance="10"
     guidetolerance="10"
     inkscape:pageopacity="0"
     inkscape:pageshadow="2"
     inkscape:window-width="1920"
     inkscape:window-height="1062"
     id="namedview975"
     showgrid="false"
     inkscape:zoom="2.5213676"
     inkscape:cx="149.77934"
     inkscape:cy="155.47118"
     inkscape:window-x="0"
     inkscape:window-y="0"
     inkscape:window-maximized="1"
     inkscape:current-layer="svg973" />
  <defs
     id="defs4">
    <style
       type="text/css"
       id="style2">
*{stroke-linecap:butt;stroke-linejoin:round;}
  </style>
  </defs>
  <path
     style="color:#000000;font-style:normal;font-variant:normal;font-weight:normal;font-stretch:normal;font-size:medium;line-height:normal;font-family:sans-serif;font-variant-ligatures:normal;font-variant-position:normal;font-variant-caps:normal;font-variant-numeric:normal;font-variant-alternates:normal;font-feature-settings:normal;text-indent:0;text-align:start;text-decoration:none;text-decoration-line:none;text-decoration-style:solid;text-decoration-color:#000000;letter-spacing:normal;word-spacing:normal;text-transform:none;writing-mode:lr-tb;direction:ltr;text-orientation:mixed;dominant-baseline:auto;baseline-shift:baseline;text-anchor:start;white-space:normal;shape-padding:0;clip-rule:nonzero;display:inline;overflow:visible;visibility:visible;opacity:1;isolation:auto;mix-blend-mode:normal;color-interpolation:sRGB;color-interpolation-filters:linearRGB;solid-color:#000000;solid-opacity:1;vector-effect:none;fill:#ffa500;fill-opacity:1;fill-rule:nonzero;stroke:none;stroke-width:2;stroke-linecap:round;stroke-linejoin:round;stroke-miterlimit:4;stroke-dasharray:none;stroke-dashoffset:0;stroke-opacity:1;color-rendering:auto;image-rendering:auto;shape-rendering:auto;text-rendering:auto;enable-background:accumulate"
     d="M 44.289062,14.675781 A 1.0001,1.0001 0 0 0 43.40625,15.1875 L 30.652344,37.277344 17.900391,15.1875 a 1.0001,1.0001 0 1 0 -1.730469,1 L 28.921875,38.277344 H 15.982422 a 1.0001,1.0001 0 1 0 0,2 H 28.921875 L 15.193359,64.054688 a 1.0001,1.0001 0 0 0 -0.05664,0.08008 1.0001,1.0001 0 0 0 -0.0039,0.0059 1.0001,1.0001 0 0 0 -0.02734,0.04297 1.0001,1.0001 0 0 0 -0.03906,0.07422 1.0001,1.0001 0 0 0 -0.02734,0.796876 1.0001,1.0001 0 0 0 0.002,0.0039 1.0001,1.0001 0 0 0 0.03906,0.08789 1.0001,1.0001 0 0 0 0.03516,0.0625 1.0001,1.0001 0 0 0 0.03516,0.05469 1.0001,1.0001 0 0 0 0,0.0039 1.0001,1.0001 0 0 0 0.04492,0.05859 l 13.726563,23.77539 H 15.982422 a 1.0001,1.0001 0 1 0 0,2 H 28.921875 L 15.193359,114.88086 a 1.0001,1.0001 0 0 0 -0.002,0 l -0.0059,0.01 a 1.0001,1.0001 0 0 0 -0.05078,0.0723 1.0001,1.0001 0 0 0 -0.03516,0.0566 1.0001,1.0001 0 0 0 -0.0332,0.0644 1.0001,1.0001 0 0 0 -0.02734,0.79688 1.0001,1.0001 0 0 0 0.04102,0.0918 1.0001,1.0001 0 0 0 0.03516,0.0625 1.0001,1.0001 0 0 0 0.0293,0.0488 1.0001,1.0001 0 0 0 0.01172,0.0137 1.0001,1.0001 0 0 0 0.03906,0.0527 l 13.726563,23.77539 H 15.982422 a 1.0001,1.0001 0 1 0 0,2 h 12.939453 l -13.728516,23.7793 a 1.0001,1.0001 0 0 0 -0.05664,0.0801 1.0001,1.0001 0 0 0 -0.0039,0.006 1.0001,1.0001 0 0 0 -0.02734,0.043 1.0001,1.0001 0 0 0 -0.03906,0.0742 1.0001,1.0001 0 0 0 -0.03711,0.0918 1.0001,1.0001 0 0 0 -0.02149,0.0586 1.0001,1.0001 0 0 0 -0.03711,0.19532 1.0001,1.0001 0 0 0 0.01953,0.29882 1.0001,1.0001 0 0 0 0.04883,0.15235 1.0001,1.0001 0 0 0 0.04102,0.0918 1.0001,1.0001 0 0 0 0.03516,0.0625 1.0001,1.0001 0 0 0 0.03516,0.0547 1.0001,1.0001 0 0 0 0,0.002 1.0001,1.0001 0 0 0 0.04492,0.0605 l 13.726563,23.77539 H 15.982422 a 1.0001,1.0001 0 1 0 0,2 h 12.939453 l -13.728516,23.7793 a 1.0001,1.0001 0 0 0 -0.002,0 l -0.0059,0.01 a 1.0001,1.0001 0 0 0 -0.04883,0.0684 1.0001,1.0001 0 0 0 -0.0039,0.006 1.0001,1.0001 0 0 0 -0.02734,0.043 1.0001,1.0001 0 0 0 -0.03906,0.0742 1.0001,1.0001 0 0 0 -0.02734,0.79883 1.0001,1.0001 0 0 0 0.03711,0.082 1.0001,1.0001 0 0 0 0.0098,0.0195 1.0001,1.0001 0 0 0 0.0293,0.0508 1.0001,1.0001 0 0 0 0.02344,0.0391 1.0001,1.0001 0 0 0 0.02148,0.0332 1.0001,1.0001 0 0 0 0.03516,0.0449 l 13.726563,23.77539 H 15.982422 a 1.0001,1.0001 0 1 0 0,2 h 12.939453 l -12.144531,21.03516 a 1.0001607,1.0001607 0 1 0 1.732422,1 l 12.144531,-21.03516 12.144531,21.03516 a 1.0001607,1.0001607 0 1 0 1.732422,-1 L 32.384766,243.57617 h 25.880859 l -12.144531,21.03516 a 1.0001607,1.0001607 0 1 0 1.732422,1 l 12.144531,-21.03516 12.144531,21.03516 a 1.0001607,1.0001607 0 1 0 1.732422,-1 L 61.728516,243.57617 h 25.882812 l -12.146484,21.03516 a 1.0001607,1.0001607 0 1 0 1.732422,1 l 12.144531,-21.03711 12.144533,21.03711 a 1.0001599,1.0001599 0 1 0 1.73242,-1 L 91.072266,243.57617 h 25.880854 l -12.14453,21.03516 a 1.0001,1.0001 0 0 0 -0.11328,0.27734 1.0001,1.0001 0 0 0 -0.0273,0.19727 1.0001,1.0001 0 0 0 0.0137,0.19922 1.0001,1.0001 0 0 0 0.0195,0.0976 1.0001,1.0001 0 0 0 0.0312,0.0957 1.0001,1.0001 0 0 0 0.0898,0.17773 1.0001,1.0001 0 0 0 0.12304,0.1582 1.0001,1.0001 0 0 0 0.15039,0.13086 1.0001,1.0001 0 0 0 0.36524,0.15625 1.0001,1.0001 0 0 0 0.0996,0.0156 1.0001,1.0001 0 0 0 0.19922,0.002 1.0001,1.0001 0 0 0 0.0977,-0.0137 1.0001,1.0001 0 0 0 0.19141,-0.0566 1.0001,1.0001 0 0 0 0.25781,-0.1543 1.0001,1.0001 0 0 0 0.0723,-0.0684 1.0001,1.0001 0 0 0 0.16211,-0.21484 l 12.14453,-21.03516 12.14453,21.03516 a 1.0001599,1.0001599 0 1 0 1.73242,-1 l -12.14648,-21.03516 h 25.88281 l -12.14649,21.03516 a 1.0001642,1.0001642 0 1 0 1.73243,1 l 12.14453,-21.03711 12.14453,21.03711 a 1.0001599,1.0001599 0 1 0 1.73242,-1 l -12.14648,-21.03516 h 25.88281 l -12.14649,21.03516 a 1.0001642,1.0001642 0 1 0 1.73243,1 l 12.14453,-21.03321 12.14453,21.03321 a 1.0001,1.0001 0 0 0 0.25976,0.30078 1.0001,1.0001 0 0 0 0.25977,0.14648 1.0001,1.0001 0 0 0 0.29297,0.0625 1.0001,1.0001 0 0 0 0.39258,-0.0547 1.0001,1.0001 0 0 0 0.0937,-0.0371 1.0001,1.0001 0 0 0 0.31836,-0.23633 1.0001,1.0001 0 0 0 0.0625,-0.0781 1.0001,1.0001 0 0 0 0.0547,-0.084 1.0001,1.0001 0 0 0 0.084,-0.18164 1.0001,1.0001 0 0 0 0.0273,-0.0957 1.0001,1.0001 0 0 0 0.0195,-0.0977 1.0001,1.0001 0 0 0 -0.0273,-0.39648 1.0001,1.0001 0 0 0 -0.0312,-0.0957 1.0001,1.0001 0 0 0 -0.041,-0.0918 1.0001,1.0001 0 0 0 -0.0332,-0.0605 l -12.14453,-21.03516 h 25.88086 l -12.14649,21.03516 a 1.0001642,1.0001642 0 1 0 1.73243,1 l 12.14453,-21.03516 12.14453,21.03516 a 1.0001599,1.0001599 0 1 0 1.73242,-1 l -12.14453,-21.03516 h 25.88086 l -12.14453,21.03516 a 1.0001,1.0001 0 1 0 1.73047,1 l 12.14453,-21.03516 12.14453,21.03516 a 1.0001599,1.0001599 0 1 0 1.73242,-1 l -12.14453,-21.03516 h 25.88086 l -12.14453,21.03516 a 1.0001,1.0001 0 1 0 1.73047,1 l 12.14453,-21.03516 12.14453,21.03516 a 1.0001599,1.0001599 0 1 0 1.73242,-1 l -12.14453,-21.03516 h 12.93945 a 1.0001,1.0001 0 1 0 0,-2 h -12.93945 l 13.72851,-23.77734 a 1.0001,1.0001 0 0 0 0.0449,-0.0625 1.0001,1.0001 0 0 0 0.0351,-0.0527 1.0001,1.0001 0 0 0 0.0469,-0.0879 1.0001,1.0001 0 0 0 0.0586,-0.70312 1.0001,1.0001 0 0 0 -0.0293,-0.0918 1.0001,1.0001 0 0 0 -0.002,-0.004 1.0001,1.0001 0 0 0 -0.002,-0.002 1.0001,1.0001 0 0 0 -0.0391,-0.0879 1.0001,1.0001 0 0 0 -0.0352,-0.0625 1.0001,1.0001 0 0 0 -0.0352,-0.0547 1.0001,1.0001 0 0 0 0,-0.002 1.0001,1.0001 0 0 0 0,-0.002 1.0001,1.0001 0 0 0 -0.0449,-0.0586 l -13.72656,-23.77539 h 12.93945 a 1.0001,1.0001 0 1 0 0,-2 h -12.93945 l 13.72851,-23.77929 h 0.002 a 1.0001,1.0001 0 0 0 0.0508,-0.0723 1.0001,1.0001 0 0 0 0.008,-0.01 1.0001,1.0001 0 0 0 0.008,-0.0137 1.0001,1.0001 0 0 0 0.0117,-0.0176 1.0001,1.0001 0 0 0 0.008,-0.0156 1.0001,1.0001 0 0 0 0.0234,-0.0391 1.0001,1.0001 0 0 0 0.0156,-0.0352 1.0001,1.0001 0 0 0 0.0254,-0.0547 1.0001,1.0001 0 0 0 0.0332,-0.0937 1.0001,1.0001 0 0 0 0.0371,-0.19726 1.0001,1.0001 0 0 0 -0.004,-0.19922 1.0001,1.0001 0 0 0 -0.0156,-0.0996 1.0001,1.0001 0 0 0 -0.0273,-0.0957 1.0001,1.0001 0 0 0 -0.0215,-0.0566 1.0001,1.0001 0 0 0 -0.0137,-0.0371 1.0001,1.0001 0 0 0 -0.0273,-0.0547 1.0001,1.0001 0 0 0 -0.0352,-0.0625 1.0001,1.0001 0 0 0 -0.0293,-0.0488 1.0001,1.0001 0 0 0 -0.006,-0.008 1.0001,1.0001 0 0 0 -0.006,-0.006 1.0001,1.0001 0 0 0 -0.0391,-0.0527 l -13.72656,-23.77734 h 12.93945 a 1.0001,1.0001 0 1 0 0,-2 h -12.93945 l 13.72851,-23.77734 a 1.0001,1.0001 0 0 0 0.0449,-0.0625 1.0001,1.0001 0 0 0 0.0351,-0.0527 1.0001,1.0001 0 0 0 0.0469,-0.0879 1.0001,1.0001 0 0 0 0.0371,-0.0918 1.0001,1.0001 0 0 0 0.0215,-0.61133 1.0001,1.0001 0 0 0 -0.0312,-0.0937 1.0001,1.0001 0 0 0 -0.041,-0.0918 1.0001,1.0001 0 0 0 -0.0352,-0.0625 1.0001,1.0001 0 0 0 -0.0352,-0.0547 1.0001,1.0001 0 0 0 0,-0.002 1.0001,1.0001 0 0 0 -0.0449,-0.0606 L 267.13672,91.101562 h 12.93945 a 1.0001,1.0001 0 1 0 0,-2 h -12.93945 l 13.72851,-23.779296 h 0.002 a 1.0001,1.0001 0 0 0 0.043,-0.06055 1.0001,1.0001 0 0 0 0.0351,-0.05273 1.0001,1.0001 0 0 0 0.0469,-0.08789 1.0001,1.0001 0 0 0 0.0586,-0.703125 1.0001,1.0001 0 0 0 -0.0312,-0.0957 1.0001,1.0001 0 0 0 -0.0371,-0.08203 1.0001,1.0001 0 0 0 -0.004,-0.0098 1.0001,1.0001 0 0 0 -0.0176,-0.0332 1.0001,1.0001 0 0 0 -0.0312,-0.05273 1.0001,1.0001 0 0 0 -0.0215,-0.0332 1.0001,1.0001 0 0 0 -0.01,-0.01367 1.0001,1.0001 0 0 0 -0.0352,-0.04492 l -13.72656,-23.77539 h 12.93945 a 1.0001,1.0001 0 1 0 0,-2 H 267.13672 L 279.89062,16.1875 a 1.0001599,1.0001599 0 1 0 -1.73242,-1 L 265.40625,37.277344 252.65234,15.1875 a 1.0001599,1.0001599 0 1 0 -1.73242,1 l 12.75391,22.089844 H 237.79297 L 250.54492,16.1875 a 1.0001,1.0001 0 0 0 0.0469,-0.08789 1.0001,1.0001 0 0 0 0.0859,-0.285156 1.0001,1.0001 0 0 0 0.008,-0.201172 1.0001,1.0001 0 0 0 -0.0117,-0.09766 1.0001,1.0001 0 0 0 -0.0215,-0.09961 1.0001,1.0001 0 0 0 -0.0312,-0.09375 1.0001,1.0001 0 0 0 -0.0391,-0.0918 1.0001,1.0001 0 0 0 -0.17187,-0.244141 1.0001,1.0001 0 0 0 -0.0723,-0.07031 1.0001,1.0001 0 0 0 -0.25391,-0.158204 1.0001,1.0001 0 0 0 -0.0937,-0.03516 1.0001,1.0001 0 0 0 -0.29492,-0.04687 1.0001,1.0001 0 0 0 -0.0996,0.0039 1.0001,1.0001 0 0 0 -0.38086,0.115234 1.0001,1.0001 0 0 0 -0.0859,0.05078 1.0001,1.0001 0 0 0 -0.1543,0.126953 1.0001,1.0001 0 0 0 -0.125,0.15625 1.0001,1.0001 0 0 0 -0.0352,0.05859 L 236.06055,37.277344 223.30859,15.1875 a 1.0001599,1.0001599 0 1 0 -1.73242,1 l 12.75391,22.089844 H 208.44922 L 221.20117,16.1875 a 1.0001,1.0001 0 1 0 -1.73047,-1 L 206.71875,37.277344 193.96484,15.1875 a 1.0001599,1.0001599 0 1 0 -1.73242,1 l 12.75391,22.089844 H 179.10547 L 191.85742,16.1875 a 1.0001599,1.0001599 0 1 0 -1.73242,-1 L 177.37305,37.277344 164.62109,15.1875 a 1.0001599,1.0001599 0 1 0 -1.73242,1 l 12.75391,22.089844 H 149.75977 L 162.51367,16.1875 a 1.0001599,1.0001599 0 1 0 -1.73242,-1 L 148.0293,37.279297 135.27734,15.1875 a 1.0001599,1.0001599 0 1 0 -1.73242,1 l 12.75391,22.089844 H 120.41602 L 133.16992,16.1875 a 1.0001599,1.0001599 0 1 0 -1.73242,-1 L 118.68555,37.279297 105.93359,15.1875 a 1.0001599,1.0001599 0 1 0 -1.73242,1 l 12.75391,22.089844 H 91.072266 L 103.82617,16.1875 a 1.0001599,1.0001599 0 1 0 -1.73242,-1 L 89.341797,37.279297 76.589844,15.1875 a 1.0001607,1.0001607 0 1 0 -1.732422,1 L 87.611328,38.277344 H 61.728516 L 74.482422,16.1875 a 1.0001607,1.0001607 0 1 0 -1.732422,-1 L 59.998047,37.277344 47.244141,15.1875 a 1.0001,1.0001 0 0 0 -0.05273,-0.08398 1.0001,1.0001 0 0 0 -0.128906,-0.150391 1.0001,1.0001 0 0 0 -0.07617,-0.06641 1.0001,1.0001 0 0 0 -0.08203,-0.05664 1.0001,1.0001 0 0 0 -0.273438,-0.11914 1.0001,1.0001 0 0 0 -0.197265,-0.0332 1.0001,1.0001 0 0 0 -0.09961,0 1.0001,1.0001 0 0 0 -0.09961,0.0078 1.0001,1.0001 0 0 0 -0.195313,0.04687 1.0001,1.0001 0 0 0 -0.179687,0.08594 1.0001,1.0001 0 0 0 -0.294922,0.267579 1.0001,1.0001 0 0 0 -0.05469,0.08203 1.0001,1.0001 0 0 0 -0.08398,0.18164 1.0001,1.0001 0 0 0 -0.05273,0.294922 1.0001,1.0001 0 0 0 0.002,0.09961 1.0001,1.0001 0 0 0 0.01172,0.09961 1.0001,1.0001 0 0 0 0.05273,0.191406 1.0001,1.0001 0 0 0 0.03906,0.0918 1.0001,1.0001 0 0 0 0.03516,0.06055 L 58.265625,38.277344 H 32.384766 L 45.138672,16.1875 a 1.0001,1.0001 0 0 0 -0.84961,-1.511719 z M 32.384766,40.277344 H 58.265625 L 45.324219,62.689453 Z m 29.345703,0 H 87.611328 L 74.669922,62.689453 Z m 29.341797,0 h 25.882814 l -12.94141,22.414062 z m 29.343754,0 h 25.88281 l -12.94141,22.414062 z m 29.34375,0 h 25.88281 l -5.9707,10.339844 -6.47071,-3.736329 a 1.0001607,1.0001607 0 1 0 -1,1.732422 l 6.47071,3.736328 -5.97071,10.339844 -4.60351,-7.972656 3.44922,-5.220703 a 1.0001,1.0001 0 0 0 -0.93555,-1.623047 1.0001,1.0001 0 0 0 -0.002,0 l -6.2461,0.375 z m 29.3457,0 h 25.88086 l -5.97071,10.339844 -6.4707,-3.736329 a 1.0001607,1.0001607 0 1 0 -1,1.732422 l 6.4707,3.736328 -5.96874,10.339844 -4.60352,-7.972656 3.44726,-5.220703 a 1.0001,1.0001 0 0 0 -0.93554,-1.623047 1.0001,1.0001 0 0 0 -0.002,0 l -6.24414,0.375 z m 29.34375,0 h 25.8789 l -12.93945,22.412109 z m 29.34375,0 h 25.88086 L 250.73438,62.689453 Z M 89.341797,41.275391 102.2832,63.689453 H 76.400391 Z m 29.343753,0 12.9414,22.414062 h -25.88281 z m 29.34375,0 5.9707,10.341797 -6.4707,3.734374 a 1.0001607,1.0001607 0 1 0 1,1.732422 L 155,53.349609 l 5.9707,10.339844 h -9.20508 l -2.80273,-5.605469 a 1.0001,1.0001 0 0 0 -1.87109,0.0078 1.0001,1.0001 0 0 0 -0.002,0.0059 l -2.79687,5.591797 h -9.20508 z m -117.376956,0.002 12.941406,22.412109 H 17.712891 Z m 29.34375,0 L 72.9375,63.689453 H 47.056641 Z m 117.378906,0 5.96875,10.339844 -6.4707,3.734374 a 1.0001607,1.0001607 0 1 0 1,1.732422 l 6.4707,-3.734375 5.9707,10.339844 h -25.88086 l 4.60352,-7.970703 6.24219,0.373047 a 1.0001,1.0001 0 0 0 0.93945,-1.623047 L 172.77148,49.25 Z m 29.34375,0 12.93945,22.412109 H 207.7168 V 56.21875 a 1.0001,1.0001 0 1 0 -2,0 v 7.470703 h -11.93946 l 4.60352,-7.970703 6.24219,0.373047 a 1.0001,1.0001 0 0 0 0.93945,-1.623047 l -3.44727,-5.220703 z m 29.34375,0 12.93945,22.412109 h -25.88086 z m 29.34375,0 12.93945,22.412109 H 252.46484 Z M 156.59766,50.117188 155.93555,50.5 155.74414,50.167969 Z m 29.34375,0 L 185.2793,50.5 185.08789,50.167969 Z m -14.14258,1.287109 0.46875,0.710937 -0.66016,-0.380859 z m 29.34375,0 0.46875,0.710937 -0.66016,-0.380859 z m -43.54688,0.447265 -0.46875,0.708985 -0.1914,-0.328125 z m 29.34375,0 -0.46875,0.708985 -0.1914,-0.328125 z m -16.33203,1.615235 0.66016,0.380859 -0.84961,-0.05078 z m 29.34375,0 0.66016,0.380859 -0.84961,-0.05078 z m -52.92187,9.224609 v 0.763672 h -0.38086 z m 2,0 0.38086,0.763672 H 149.0293 Z M 17.712891,65.689453 H 43.59375 L 30.652344,88.101562 Z m 29.34375,0 H 72.9375 L 59.996094,88.101562 Z m 29.345703,0 H 102.2832 L 89.341797,88.103516 Z m 29.341796,0 h 25.88281 l -5.9707,10.339844 -6.4707,-3.734375 a 1.0001,1.0001 0 1 0 -1,1.730469 l 6.4707,3.736328 -5.9707,10.341797 -4.60352,-7.972657 3.45117,-5.226562 a 1.0001,1.0001 0 0 0 -0.9375,-1.619141 1.0001,1.0001 0 0 0 -0.002,0 l -6.24609,0.375 z m 29.34375,0 h 11.94141 v 7.470703 a 1.0001,1.0001 0 1 0 2,0 v -7.470703 h 11.9414 l -4.60351,7.970703 -6.25781,-0.375 a 1.0001,1.0001 0 0 0 -0.92579,1.623047 l 3.44922,5.222656 -4.60351,7.972657 z m 29.3457,0 h 25.88086 L 177.375,88.101562 Z m 29.34375,0 h 9.20313 l 2.80273,5.605469 a 1.0001,1.0001 0 0 0 1.8711,-0.0078 1.0001,1.0001 0 0 0 0.002,-0.0059 l 2.79687,-5.591797 h 9.20313 l -5.96875,10.339844 -6.4707,-3.734375 a 1.0001,1.0001 0 1 0 -1,1.730469 l 6.4707,3.736328 -5.96875,10.339843 h -0.002 z m 29.34375,0 h 25.88086 l -12.93945,22.412109 -4.60352,-7.970703 3.44727,-5.224609 a 1.0001,1.0001 0 0 0 -0.93164,-1.621094 1.0001,1.0001 0 0 0 -0.004,0 l -6.24609,0.375 z m 29.34375,0 h 25.88086 l -12.93945,22.412109 z m -47.1289,0.234375 h 0.38086 V 66.6875 Z m 2.38086,0 h 0.38086 L 207.7168,66.6875 Z m -103.70313,0.763672 5.97071,10.341797 -6.47071,3.736328 a 1.0001,1.0001 0 1 0 1,1.730469 l 6.47071,-3.734375 5.9707,10.339843 H 107.75 l -2.80273,-5.605468 a 1.0001,1.0001 0 0 0 -1.8711,0.0078 1.0001,1.0001 0 0 0 -0.002,0.0059 l -2.79688,5.591796 h -9.205074 z m 29.34375,0 12.94141,22.414062 h -11.94141 v -7.470703 a 1.0001,1.0001 0 1 0 -2,0 v 7.470703 h -11.9414 l 4.60351,-7.970703 6.26172,0.376953 a 1.0001,1.0001 0 0 0 0.93164,-1.613281 1.0001,1.0001 0 0 0 -0.01,-0.01172 l -3.44921,-5.222656 z m -88.033201,0.002 12.941406,22.412109 H 32.384766 Z m 29.345703,0 12.939453,22.412109 H 61.728516 Z m 88.031248,0 12.94141,22.412109 h -9.20508 l -2.80273,-5.605468 a 1.0001,1.0001 0 0 0 -1.8711,0.0078 1.0001,1.0001 0 0 0 -0.002,0.0059 l -2.79688,5.591796 h -9.20507 l 5.97265,-10.339843 c 2.1512,1.241993 3.98443,2.300052 6.46875,3.734375 a 1.0001,1.0001 0 1 0 1,-1.730469 c -2.48505,-1.43474 -4.31897,-2.49403 -6.4707,-3.736328 z m 29.34571,0 12.93945,22.412109 h -25.88086 z m 29.34374,0 5.96876,10.339844 -6.47071,3.736328 a 1.0001,1.0001 0 1 0 1,1.730469 l 6.47071,-3.734375 5.9707,10.339843 h -25.88086 l 4.60156,-7.970703 h 0.002 l 6.25977,0.376953 a 1.0001,1.0001 0 0 0 0.93164,-1.613281 1.0001,1.0001 0 0 0 -0.01,-0.01172 l -3.44727,-5.222656 z m 29.34376,0 12.93945,22.412109 h -25.88086 z m -138.15235,8.839844 -0.66406,0.382812 -0.19141,-0.332031 z m 41.55078,0 0.85547,0.05078 -0.1914,0.332031 c -0.21052,-0.121539 -0.45706,-0.263298 -0.66407,-0.382812 z m 75.82422,0 -0.66211,0.382812 -0.1914,-0.332031 z m -102.17383,1.287109 0.46875,0.712891 -0.66015,-0.382813 z m 88.03125,0 0.46875,0.712891 -0.66015,-0.382813 z m -62.67968,0.445313 c 0.20657,0.119264 0.45204,0.261532 0.66211,0.382812 l -0.19141,0.330078 z m 77.82031,0 -0.4707,0.71289 -0.18946,-0.330078 z m -117.375,0.002 -0.4707,0.710937 -0.19141,-0.330078 z m 13.01172,1.615234 0.66211,0.382813 -0.85352,-0.05273 z m 88.03125,0 0.66211,0.382813 -0.85352,-0.05273 z m -111.60938,9.22461 v 0.763672 h -0.38086 z m 2,0 0.38086,0.763672 h -0.38086 z m 56.6875,0 v 0.763672 h -0.38086 z m 2,0 0.38086,0.763672 h -0.38086 z M 32.384766,91.101562 H 58.265625 L 45.324219,113.51367 Z m 29.34375,0 H 87.611328 L 74.669922,113.51367 Z m 29.345703,0 h 11.939451 v 7.470704 a 1.0001,1.0001 0 1 0 2,0 v -7.470704 h 11.94141 l -12.94141,22.414058 -4.603514,-7.97265 3.457034,-5.23242 a 1.0001,1.0001 0 0 0 -0.94336,-1.613284 1.0001,1.0001 0 0 0 -0.002,0 l -6.246099,0.375 z m 29.341801,0 h 9.20507 l 2.80274,5.605469 a 1.0001,1.0001 0 0 0 1.87109,-0.0078 1.0001,1.0001 0 0 0 0.002,-0.0059 l 2.79687,-5.591797 h 9.20508 l -5.97071,10.339848 c -2.15139,-1.24211 -3.9861,-2.299895 -6.4707,-3.734379 a 1.0001607,1.0001607 0 1 0 -1,1.732422 c 2.4846,1.434487 4.31931,2.492267 6.4707,3.734377 l -5.9707,10.34179 z m 29.34375,0 h 11.9414 v 7.470704 a 1.0001,1.0001 0 1 0 2,0 v -7.470704 h 11.94141 l -12.94141,22.412108 -4.60156,-7.97265 3.45312,-5.22852 a 1.0001,1.0001 0 0 0 -0.9414,-1.615234 1.0001,1.0001 0 0 0 -0.002,0 l -6.2461,0.375 z m 29.3457,0 h 25.87891 l -12.9375,22.412108 h -0.002 z m 29.34375,0 h 25.88086 l -12.93946,22.412108 z m 29.34375,0 h 25.88086 l -12.93945,22.412108 z m -105.81641,0.234376 h 0.38086 v 0.763671 z m 2.38086,0 h 0.38086 l -0.38086,0.763671 z M 89.341797,92.099609 95.3125,102.44141 c -2.151726,1.24229 -3.985658,2.30158 -6.470703,3.73632 a 1.0001642,1.0001642 0 1 0 1,1.73243 c 2.485045,-1.43474 4.318977,-2.49403 6.470703,-3.73633 l 5.96875,10.33984 h -9.203125 l -2.802734,-5.60547 a 1.0001,1.0001 0 0 0 -1.871094,0.01 l -2.798828,5.5957 h -9.205078 z m 29.343753,0 12.9414,22.414061 h -25.88281 z m 29.34375,0 5.9707,10.341801 -6.4707,3.73632 a 1.0001642,1.0001642 0 1 0 1,1.73243 l 6.4707,-3.73633 5.9707,10.33984 h -25.88281 l 4.60352,-7.9707 6.24804,0.375 a 1.0001,1.0001 0 0 0 0.93555,-1.62305 l -3.44922,-5.22265 z m -117.376956,0.002 12.941406,22.412108 H 17.712891 Z m 29.34375,0 L 72.9375,114.51367 H 47.056641 Z m 117.378906,0 12.93945,22.412108 h -25.88086 z m 29.34375,0 12.93945,22.412108 h -25.88086 z m 29.34375,0 12.93945,22.412108 h -25.88086 z m 29.34375,0 12.93945,22.412108 H 252.46484 Z M 97.908203,100.94141 c -0.206556,0.11925 -0.452061,0.26154 -0.662109,0.38281 l -0.191406,-0.33008 z m 58.689457,0 -0.66211,0.38281 -0.19141,-0.33008 z m -14.14258,1.28906 0.46875,0.70898 c -0.20584,-0.11884 -0.45085,-0.26001 -0.66016,-0.38086 z m -43.546877,0.44336 -0.470703,0.71484 -0.191406,-0.33203 c 0.210048,-0.12127 0.455553,-0.26356 0.662109,-0.38281 z m 58.687497,0.002 -0.46875,0.71094 -0.1914,-0.33008 z m -16.33203,1.61524 c 0.21004,0.12126 0.45557,0.26356 0.66211,0.38281 l -0.85351,-0.0508 z m -52.921873,9.2246 v 0.76368 h -0.380859 z m 2,0 0.380859,0.76368 h -0.380859 z m -72.628906,2.99805 H 43.59375 l -12.941406,22.41211 z m 29.34375,0 H 72.9375 l -12.941406,22.41211 z m 29.34375,0 h 11.941406 v 7.47071 a 1.0001,1.0001 0 1 0 2,0 v -7.47071 H 102.2832 l -4.603512,7.97071 -6.25,-0.37305 a 1.0001,1.0001 0 0 0 -0.933594,1.62305 l 3.449218,5.2207 -4.603515,7.97265 z m 29.345699,0 h 25.88086 l -4.60351,7.97071 -6.24805,-0.37305 a 1.0001,1.0001 0 0 0 -0.93555,1.62305 l 3.44922,5.2207 -4.60351,7.97265 -5.97071,-10.34179 c 2.1514,-1.24211 3.98611,-2.2999 6.47071,-3.73438 a 1.0001599,1.0001599 0 1 0 -1,-1.73242 c -2.48476,1.43458 -4.31919,2.49415 -6.47071,3.73633 z m 29.3418,0 h 25.88281 l -12.9414,22.41406 z m 29.3457,0 h 25.87891 l -12.9375,22.41211 h -0.002 z m 29.34375,0 h 25.88086 l -12.93945,22.41211 z m 29.34375,0 h 25.88086 l -12.93945,22.41211 z m 29.34375,0 h 25.88086 l -12.93945,22.41211 z m -119.10742,0.99805 12.94141,22.41406 h -9.20508 l -2.80469,-5.60547 a 1.0001,1.0001 0 0 0 -1.86914,0.01 l -2.79883,5.5957 h -9.20507 l 5.9707,-10.33984 c 2.15152,1.24218 3.98594,2.30175 6.4707,3.73633 a 1.0001642,1.0001642 0 1 0 1,-1.73243 c -2.48476,-1.43457 -4.31918,-2.49415 -6.4707,-3.73632 z m -88.033201,0.002 12.941406,22.41211 H 32.384766 Z m 29.345703,0 12.941406,22.41211 H 61.728516 Z m 29.343748,0 4.60352,7.97266 -3.44922,5.2207 a 1.0001,1.0001 0 0 0 0.93555,1.62305 h 0.002 l 6.24609,-0.375 4.60156,7.9707 H 91.072266 l 5.970703,-10.33984 c 2.151518,1.24218 3.985941,2.30175 6.470701,3.73633 a 1.0001642,1.0001642 0 1 0 1,-1.73243 c -2.48476,-1.43457 -4.31918,-2.49415 -6.470701,-3.73632 z m 58.6875,0 12.94141,22.41211 h -25.88281 z m 29.34375,0 h 0.002 l 12.93945,22.41211 h -25.88086 z m 29.3457,0 12.93946,22.41211 h -25.88086 z m 29.34376,0 12.93945,22.41211 h -25.88086 z m -155.287114,8.8418 0.851562,0.0508 -0.191406,0.33008 c -0.209289,-0.12083 -0.454335,-0.26203 -0.660156,-0.38086 z m 29.343754,0 0.85156,0.0508 -0.19141,0.33008 c -0.20929,-0.12083 -0.45433,-0.26203 -0.66015,-0.38086 z m -15.20313,1.28711 0.19141,0.33008 c -0.20929,0.12083 -0.45434,0.26202 -0.66016,0.38086 z m -15.140624,0.44531 c 0.205821,0.11883 0.450867,0.26003 0.660156,0.38086 l -0.191406,0.33008 z m 29.343754,0 c 0.20582,0.11883 0.45086,0.26003 0.66015,0.38086 l -0.1914,0.33008 z m -13.01172,1.61523 0.1914,0.33204 -0.85351,0.0508 c 0.20654,-0.11925 0.45207,-0.26155 0.66211,-0.38282 z m 21.57812,9.22461 v 0.76368 h -0.38086 z m 2,0 0.38086,0.76368 h -0.38086 z m -101.972654,2.99805 h 25.880859 l -12.941406,22.41406 z m 29.34375,0 h 25.882812 l -12.941406,22.41406 z m 29.34375,0 h 25.882814 l -12.94141,22.41602 z m 29.345704,0 h 11.93945 v 7.47266 a 1.0001,1.0001 0 1 0 2,0 v -7.47266 h 11.94141 l -4.60352,7.97266 -6.24609,-0.375 a 1.0001,1.0001 0 0 0 -0.9375,1.62304 l 3.44922,5.22071 -4.60352,7.97265 z m 29.3418,0 h 25.88085 l -12.93945,22.41211 z m 29.3457,0 h 25.88086 l -12.93945,22.41406 z m 29.34375,0 h 25.88086 l -12.93946,22.41406 z m 29.34375,0 h 25.88086 l -12.93945,22.41406 z M 89.341797,142.92383 102.2832,165.33984 H 76.400391 Z m 58.687503,0 12.9414,22.41601 h -9.20508 l -2.80273,-5.60546 a 1.0001,1.0001 0 0 0 -1.87109,0.008 1.0001,1.0001 0 0 0 -0.002,0.006 l -2.79687,5.59179 h -9.20508 l 5.9707,-10.34179 6.47071,3.73633 a 1.0001642,1.0001642 0 1 0 1,-1.73243 l -6.47071,-3.73633 z m -117.376956,0.002 12.941406,22.41406 H 17.712891 Z m 29.34375,0 12.941406,22.41406 H 47.056641 Z m 58.689456,0 12.9414,22.41406 h -25.88281 z m 58.6875,0 h 0.002 l 12.93945,22.41406 h -25.88086 z m 29.3457,0 12.93945,22.41406 h -25.88086 z m 29.34375,0 12.93945,22.41406 h -25.88086 z m 29.34375,0 12.93945,22.41406 h -25.88086 z m -125.94336,8.8418 0.85352,0.0508 -0.19141,0.33203 z m -1.00195,1.73047 0.66406,0.38281 -0.19141,0.33203 z m 8.56836,10.84179 v 0.76563 h -0.38282 z m 2,0 0.38281,0.76563 h -0.38281 z m -131.316409,3 H 43.59375 l -12.941406,22.41211 z m 29.34375,0 H 72.9375 l -12.941406,22.41211 z m 29.34375,0 H 102.2832 l -12.941403,22.41407 z m 37.099609,0 h 18.12695 l -5.9707,10.3418 -13.14453,-7.58984 1,-1.73242 A 1.0001,1.0001 0 0 0 113.5,167.33984 Z m 21.58984,0 h 11.93946 v 7.47071 a 1.0001,1.0001 0 1 0 2,0 v -7.47071 h 11.93945 l -0.13281,0.23243 h -0.002 l -5.40039,3.56445 a 1.0001,1.0001 0 0 0 0.0508,1.70117 l 1.73242,1 c -0.0473,0.082 -0.10102,0.17372 -0.14844,0.25586 l -9.03906,15.6582 -9.1875,-15.91406 1.73242,-1 a 1.0001,1.0001 0 0 0 0.0508,-1.70117 l -5.40234,-3.56641 z m 29.34375,0 h 18.12696 a 1.0001,1.0001 0 0 0 -0.0137,1.01954 l 1,1.73242 c -4.23728,2.44638 -8.77938,5.06879 -13.14258,7.58789 z m 29.34375,0 h 25.88086 l -12.93945,22.41211 z m 29.34375,0 h 25.88086 l -12.93945,22.41211 z m 29.34375,0 h 25.88086 l -12.93945,22.41211 z m -148.45117,0.99805 12.94141,22.41406 H 91.072266 Z m 29.34375,0 0.13281,0.23047 0.38868,6.46289 a 1.0001,1.0001 0 0 0 1.49804,0.80664 l 1.73243,-1 c 1.41025,2.44264 2.9172,5.05372 4.40624,7.63281 l 3.78321,6.55078 -17.91211,-10.34179 z m -88.033201,0.002 12.941406,22.41211 H 32.384766 Z m 29.345703,0 12.941406,22.41211 H 61.728516 Z m 88.031248,0 5.97071,10.33985 c -5.9693,3.44637 -11.7089,6.76037 -17.91211,10.34179 l 3.7832,-6.55078 4.40625,-7.63281 1.73242,1 a 1.0001,1.0001 0 0 0 1.49805,-0.80664 l 0.38867,-6.45898 z m 29.34571,0 12.93945,22.41211 h -25.88086 z m 29.34374,0 12.93946,22.41211 h -25.88086 z m 29.34376,0 12.93945,22.41211 h -25.88086 z m -140.61719,0.36914 0.85351,0.0508 -0.1914,0.33203 z m 75.82422,0 c -0.21239,0.12263 -0.4494,0.26001 -0.66211,0.38282 l -0.19141,-0.33203 z m -76.82032,1.73438 0.65821,0.38086 -0.19141,0.32812 z m 77.81641,0 -0.4668,0.70898 -0.1914,-0.32812 c 0.2115,-0.12211 0.44702,-0.25893 0.6582,-0.38086 z m -49.47852,1 0.7129,0.4707 -0.33008,0.19141 c -0.12084,-0.20929 -0.26258,-0.45385 -0.38282,-0.66211 z m 21.13868,0.002 c -0.11983,0.20754 -0.26045,0.4516 -0.38086,0.66016 l -0.33008,-0.18945 z m -47.08594,0.37891 13.14453,7.58789 -5.9707,10.3418 -9.06446,-15.70118 a 1.0001,1.0001 0 0 0 0.89063,-0.49804 z m 73.03516,0 1,1.73047 a 1.0001,1.0001 0 0 0 0.89062,0.5 l -9.0625,15.69726 -5.9707,-10.33984 c 4.36329,-2.51915 8.90522,-5.14145 13.14258,-7.58789 z m -48.82032,0.61914 0.38282,0.66211 -0.33008,0.19141 z m 24.60547,0.002 -0.0508,0.85157 -0.33203,-0.19141 z m -33.94531,7.9668 17.91211,10.33984 h -23.88281 z m 43.28516,0 5.9707,10.33984 h -23.88281 c 6.20304,-3.58132 11.94297,-6.89356 17.91211,-10.33984 z M 32.384766,192.75195 h 25.880859 l -12.941406,22.41211 z m 29.34375,0 h 25.882812 l -12.941406,22.41211 z m 29.34375,0 h 25.882814 l -12.94141,22.41407 z m 29.343754,0 h 25.88086 l -12.93946,22.41211 z m 29.3457,0 h 25.88086 l -12.94141,22.41211 z m 29.34375,0 h 25.88086 l -12.93945,22.41211 z m 29.34375,0 h 25.88086 l -12.93946,22.41211 z m 29.34375,0 h 25.88086 l -12.93945,22.41211 z M 89.341797,193.75 102.2832,216.16406 H 76.400391 Z m 29.343753,0 12.9414,22.41406 h -25.88281 z m -88.033206,0.002 12.941406,22.41211 H 17.712891 Z m 29.34375,0 12.941406,22.41211 H 47.056641 Z m 117.378906,0 12.93945,22.41211 h -25.88086 z m 29.34375,0 12.93945,22.41211 h -25.88086 z m 29.34375,0 12.93945,22.41211 h -25.88086 z m 29.34375,0 12.93945,22.41211 h -25.88086 z m -118.37695,1.73047 v 20.68164 h -11.93946 z m 2,0 11.93945,20.68164 H 149.0293 Z M 17.712891,218.16406 H 43.59375 l -12.941406,22.41211 z m 29.34375,0 H 72.9375 l -12.941406,22.41211 z m 29.34375,0 H 102.2832 l -12.941403,22.41406 z m 29.343749,0 H 131.625 l -12.93945,22.41211 z m 29.34375,0 h 11.94141 v 15.17578 h -2 a 1.0001,1.0001 0 0 0 -0.87696,0.52344 z m 13.94141,0 h 11.9414 l -9.06445,15.69922 a 1.0001,1.0001 0 0 0 -0.87695,-0.52344 h -2 z m 15.40429,0 h 25.88086 L 177.375,240.57617 h -0.002 z m 29.34375,0 h 25.88086 l -12.93945,22.41211 z m 29.34375,0 h 25.88086 l -12.93945,22.41211 z m 29.34375,0 h 25.88086 l -12.93945,22.41211 z m -148.45117,0.99805 12.94141,22.41406 H 91.072266 Z m -58.689451,0.002 12.941406,22.41211 H 32.384766 Z m 29.345703,0 12.941406,22.41211 H 61.728516 Z m 58.687498,0 12.94141,22.41211 h -25.88086 z m 29.34375,0 12.93945,22.41211 h -25.88085 z m 29.34571,0 12.93945,22.41211 h -25.88086 z m 29.34374,0 12.93946,22.41211 h -25.88086 z m 29.34376,0 12.93945,22.41211 h -25.88086 z m -104.0879,16.17578 h 0.38282 v 0.76563 z m 2.38282,0 h 0.38281 l -0.38281,0.76563 z"
     id="path963"
     inkscape:connector-curvature="0" />
  <defs
     id="defs971">
    <clipPath
       id="p7b9196be14">
      <rect
         height="259.4"
         width="274.658824"
         x="10.7"
         y="10.7"
         id="rect968" />
    </clipPath>
  </defs>
</svg>
