<?xml version="1.0" standalone="no"?><!DOCTYPE svg PUBLIC "-//W3C//DTD SVG 1.1//EN" "http://www.w3.org/Graphics/SVG/1.1/DTD/svg11.dtd"><svg xmlns="http://www.w3.org/2000/svg" xmlns:xlink="http://www.w3.org/1999/xlink" width="500" viewBox="-1.0 -12.0 102.0 13.0 "><g style="stroke-width:0.5;stroke-linejoin:bevel; stroke-linecap:butt; stroke:black; fill:snow"><polyline points="0,0 1,-1 2,0 3,-1 4,-2 5,-1 6,0 7,-1 8,-2 9,-1 10,-2 11,-3 12,-2 13,-3 14,-4 15,-3 16,-2 17,-3 18,-2 19,-3 20,-2 21,-1 22,0 23,-1 24,0 25,-1 26,-2 27,-3 28,-4 29,-5 30,-4 31,-3 32,-4 33,-5 34,-6 35,-5 36,-6 37,-5 38,-4 39,-3 40,-4 41,-5 42,-6 43,-7 44,-8 45,-9 46,-10 47,-11 48,-10 49,-9 50,-10 51,-9 52,-10 53,-9 54,-8 55,-7 56,-6 57,-7 58,-8 59,-9 60,-8 61,-9 62,-10 63,-9 64,-8 65,-7 66,-8 67,-7 68,-6 69,-7 70,-8 71,-7 72,-8 73,-9 74,-8 75,-7 76,-8 77,-7 78,-6 79,-7 80,-8 81,-7 82,-6 83,-7 84,-8 85,-7 86,-6 87,-5 88,-4 89,-3 90,-4 91,-3 92,-2 93,-1 94,0 95,-1 96,-2 97,-1 98,0 99,-1 100,0 "/> </g><g style="stroke-width:0.25;stroke-linejoin:bevel;stroke-dasharray:0.25; stroke-linecap:butt; stroke:gray; fill:none"><line x1="0" y1="0" x2="2" y2="0"/><line x1="3" y1="-1" x2="5" y2="-1"/><line x1="2" y1="0" x2="6" y2="0"/><line x1="7" y1="-1" x2="9" y2="-1"/><line x1="10" y1="-2" x2="12" y2="-2"/><line x1="13" y1="-3" x2="15" y2="-3"/><line x1="12" y1="-2" x2="16" y2="-2"/><line x1="16" y1="-2" x2="18" y2="-2"/><line x1="18" y1="-2" x2="20" y2="-2"/><line x1="9" y1="-1" x2="21" y2="-1"/><line x1="6" y1="0" x2="22" y2="0"/><line x1="22" y1="0" x2="24" y2="0"/><line x1="28" y1="-4" x2="30" y2="-4"/><line x1="27" y1="-3" x2="31" y2="-3"/><line x1="33" y1="-5" x2="35" y2="-5"/><line x1="35" y1="-5" x2="37" y2="-5"/><line x1="32" y1="-4" x2="38" y2="-4"/><line x1="31" y1="-3" x2="39" y2="-3"/><line x1="46" y1="-10" x2="48" y2="-10"/><line x1="45" y1="-9" x2="49" y2="-9"/><line x1="49" y1="-9" x2="51" y2="-9"/><line x1="51" y1="-9" x2="53" y2="-9"/><line x1="44" y1="-8" x2="54" y2="-8"/><line x1="43" y1="-7" x2="55" y2="-7"/><line x1="42" y1="-6" x2="56" y2="-6"/><line x1="58" y1="-8" x2="60" y2="-8"/><line x1="61" y1="-9" x2="63" y2="-9"/><line x1="60" y1="-8" x2="64" y2="-8"/><line x1="57" y1="-7" x2="65" y2="-7"/><line x1="65" y1="-7" x2="67" y2="-7"/><line x1="56" y1="-6" x2="68" y2="-6"/><line x1="69" y1="-7" x2="71" y2="-7"/><line x1="72" y1="-8" x2="74" y2="-8"/><line x1="71" y1="-7" x2="75" y2="-7"/><line x1="75" y1="-7" x2="77" y2="-7"/><line x1="68" y1="-6" x2="78" y2="-6"/><line x1="79" y1="-7" x2="81" y2="-7"/><line x1="78" y1="-6" x2="82" y2="-6"/><line x1="83" y1="-7" x2="85" y2="-7"/><line x1="82" y1="-6" x2="86" y2="-6"/><line x1="41" y1="-5" x2="87" y2="-5"/><line x1="40" y1="-4" x2="88" y2="-4"/><line x1="39" y1="-3" x2="89" y2="-3"/><line x1="89" y1="-3" x2="91" y2="-3"/><line x1="26" y1="-2" x2="92" y2="-2"/><line x1="25" y1="-1" x2="93" y2="-1"/><line x1="24" y1="0" x2="94" y2="0"/><line x1="95" y1="-1" x2="97" y2="-1"/><line x1="94" y1="0" x2="98" y2="0"/><line x1="98" y1="0" x2="100" y2="0"/></g></svg>