<?xml version="1.0" standalone="no"?><!DOCTYPE svg PUBLIC "-//W3C//DTD SVG 1.1//EN" "http://www.w3.org/Graphics/SVG/1.1/DTD/svg11.dtd"><svg xmlns="http://www.w3.org/2000/svg" xmlns:xlink="http://www.w3.org/1999/xlink" width="500" viewBox="-1.0 -12.0 102.0 13.0 "><g style="stroke-width:0.5;stroke-linejoin:bevel; stroke-linecap:butt; stroke:black; fill:snow"><polyline points="0,0 1,-1 2,-2 3,-3 4,-2 5,-1 6,-2 7,-3 8,-4 9,-5 10,-6 11,-7 12,-8 13,-7 14,-8 15,-9 16,-8 17,-7 18,-6 19,-5 20,-4 21,-5 22,-4 23,-5 24,-6 25,-7 26,-8 27,-7 28,-8 29,-9 30,-10 31,-11 32,-10 33,-11 34,-10 35,-11 36,-10 37,-9 38,-10 39,-9 40,-10 41,-11 42,-10 43,-9 44,-8 45,-9 46,-10 47,-9 48,-8 49,-7 50,-6 51,-5 52,-4 53,-5 54,-4 55,-5 56,-6 57,-5 58,-4 59,-5 60,-6 61,-7 62,-8 63,-7 64,-6 65,-7 66,-8 67,-7 68,-8 69,-7 70,-6 71,-7 72,-8 73,-9 74,-8 75,-7 76,-8 77,-7 78,-6 79,-5 80,-4 81,-5 82,-6 83,-5 84,-6 85,-5 86,-4 87,-5 88,-4 89,-3 90,-4 91,-3 92,-2 93,-3 94,-2 95,-3 96,-4 97,-3 98,-2 99,-1 100,0 "/> </g><g style="stroke-width:0.25;stroke-linejoin:bevel;stroke-dasharray:0.25; stroke-linecap:butt; stroke:gray; fill:none"><line x1="2" y1="-2" x2="4" y2="-2"/><line x1="1" y1="-1" x2="5" y2="-1"/><line x1="11" y1="-7" x2="13" y2="-7"/><line x1="14" y1="-8" x2="16" y2="-8"/><line x1="13" y1="-7" x2="17" y2="-7"/><line x1="10" y1="-6" x2="18" y2="-6"/><line x1="9" y1="-5" x2="19" y2="-5"/><line x1="8" y1="-4" x2="20" y2="-4"/><line x1="20" y1="-4" x2="22" y2="-4"/><line x1="25" y1="-7" x2="27" y2="-7"/><line x1="30" y1="-10" x2="32" y2="-10"/><line x1="32" y1="-10" x2="34" y2="-10"/><line x1="34" y1="-10" x2="36" y2="-10"/><line x1="29" y1="-9" x2="37" y2="-9"/><line x1="37" y1="-9" x2="39" y2="-9"/><line x1="40" y1="-10" x2="42" y2="-10"/><line x1="39" y1="-9" x2="43" y2="-9"/><line x1="28" y1="-8" x2="44" y2="-8"/><line x1="45" y1="-9" x2="47" y2="-9"/><line x1="44" y1="-8" x2="48" y2="-8"/><line x1="27" y1="-7" x2="49" y2="-7"/><line x1="24" y1="-6" x2="50" y2="-6"/><line x1="23" y1="-5" x2="51" y2="-5"/><line x1="22" y1="-4" x2="52" y2="-4"/><line x1="52" y1="-4" x2="54" y2="-4"/><line x1="55" y1="-5" x2="57" y2="-5"/><line x1="54" y1="-4" x2="58" y2="-4"/><line x1="61" y1="-7" x2="63" y2="-7"/><line x1="60" y1="-6" x2="64" y2="-6"/><line x1="65" y1="-7" x2="67" y2="-7"/><line x1="67" y1="-7" x2="69" y2="-7"/><line x1="64" y1="-6" x2="70" y2="-6"/><line x1="72" y1="-8" x2="74" y2="-8"/><line x1="71" y1="-7" x2="75" y2="-7"/><line x1="75" y1="-7" x2="77" y2="-7"/><line x1="70" y1="-6" x2="78" y2="-6"/><line x1="59" y1="-5" x2="79" y2="-5"/><line x1="58" y1="-4" x2="80" y2="-4"/><line x1="81" y1="-5" x2="83" y2="-5"/><line x1="83" y1="-5" x2="85" y2="-5"/><line x1="80" y1="-4" x2="86" y2="-4"/><line x1="86" y1="-4" x2="88" y2="-4"/><line x1="7" y1="-3" x2="89" y2="-3"/><line x1="89" y1="-3" x2="91" y2="-3"/><line x1="6" y1="-2" x2="92" y2="-2"/><line x1="92" y1="-2" x2="94" y2="-2"/><line x1="95" y1="-3" x2="97" y2="-3"/><line x1="94" y1="-2" x2="98" y2="-2"/><line x1="5" y1="-1" x2="99" y2="-1"/><line x1="0" y1="0" x2="100" y2="0"/></g></svg>